<svg xmlns="http://www.w3.org/2000/svg"   width="24" height="24" viewBox="0 0 24 24">

    <rect x="3" y="5" style="fill:white" width="17" height="19"/>
        <g>
            <path style="fill:black"
                    d="M36,12c13.255,0,24,10.745,24,24c0,10.656-6.948,19.685-16.559,22.818c0.003-0.009,0.007-0.022,0.007-0.022
    s-1.62-0.759-1.586-2.114c0.038-1.491,0-4.971,0-6.248c0-2.193-1.388-3.747-1.388-3.747s10.884,0.122,10.884-11.491
    c0-4.481-2.342-6.812-2.342-6.812s1.23-4.784-0.426-6.812c-1.856-0.2-5.18,1.774-6.6,2.697c0,0-2.25-0.922-5.991-0.922
    c-3.742,0-5.991,0.922-5.991,0.922c-1.419-0.922-4.744-2.897-6.6-2.697c-1.656,2.029-0.426,6.812-0.426,6.812
    s-2.342,2.332-2.342,6.812c0,11.613,10.884,11.491,10.884,11.491s-1.097,1.239-1.336,3.061c-0.76,0.258-1.877,0.576-2.78,0.576
    c-2.362,0-4.159-2.296-4.817-3.358c-0.649-1.048-1.98-1.927-3.221-1.927c-0.817,0-1.216,0.409-1.216,0.876s1.146,0.793,1.902,1.659
    c1.594,1.826,1.565,5.933,7.245,5.933c0.617,0,1.876-0.152,2.823-0.279c-0.006,1.293-0.007,2.657,0.013,3.454
    c0.034,1.355-1.586,2.114-1.586,2.114s0.004,0.013,0.007,0.022C18.948,55.685,12,46.656,12,36C12,22.745,22.745,12,36,12z"/>

        </g>


<path fill="black"
      d="M12 0c-6.626 0-12 5.373-12 12 0 5.302 3.438 9.8 8.207 11.387.599.111.793-.261.793-.577v-2.234c-3.338.726-4.033-1.416-4.033-1.416-.546-1.387-1.333-1.756-1.333-1.756-1.089-.745.083-.729.083-.729 1.205.084 1.839 1.237 1.839 1.237 1.07 1.834 2.807 1.304 3.492.997.107-.775.418-1.305.762-1.604-2.665-.305-5.467-1.334-5.467-5.931 0-1.311.469-2.381 1.236-3.221-.124-.303-.535-1.524.117-3.176 0 0 1.008-.322 3.301 1.23.957-.266 1.983-.399 3.003-.404 1.02.005 2.047.138 3.006.404 2.291-1.552 3.297-1.23 3.297-1.23.653 1.653.242 2.874.118 3.176.77.84 1.235 1.911 1.235 3.221 0 4.609-2.807 5.624-5.479 5.921.43.372.823 1.102.823 2.222v3.293c0 .319.192.694.801.576 4.765-1.589 8.199-6.086 8.199-11.386 0-6.627-5.373-12-12-12z"/>

</svg>